<?xml version="1.0" encoding="utf-8"?>
<!-- Generator: Adobe Illustrator 27.1.1, SVG Export Plug-In . SVG Version: 6.00 Build 0)  -->
<svg version="1.1" id="Layer_1" xmlns="http://www.w3.org/2000/svg" xmlns:xlink="http://www.w3.org/1999/xlink" x="0px" y="0px" viewBox="0 0 792 465.9" style="enable-background:new 0 0 792 465.9;" xml:space="preserve">
  <style type="text/css">
	.st0{fill:#97C93D;}
	.st1{fill:#172A53;}
	.st2{fill:#7FBC42;}
</style>
  <polygon class="st0" points="85,205.6 85,205.6 46.6,123.3 1,123.3 36.9,200.3 55.4,171.2 2.2,284.9 47.7,284.9 85,205.6 85,205.6 
	85,205.6 " />
  <g>
    <g>
      <path d="M374.3,335c-2.5-1.5-5.4-2.3-8.3-2.3c-9.3,0-15.5,6.7-15.5,15.8c0,9.5,6.8,15.8,15.2,15.8c2.9,0,6.8-0.8,8.8-2l0.4,5.6
			c-3.1,1.3-6.8,1.4-9.2,1.4c-12.8,0-21.3-8.2-21.3-21.1c0-12.4,9-20.7,21.3-20.7c3.1,0,6.2,0.5,9.1,1.7L374.3,335z" />
      <path d="M378.9,339.2h5.1v4.6h0.1c1.4-3.1,4.6-5.3,7.7-5.3c1.6,0,2.4,0.2,3.6,0.4v4.9c-1-0.4-2.1-0.5-3-0.5c-4.9,0-8,4.6-8,12
			v13.4h-5.4V339.2z" />
      <path d="M402.9,351.1c0.4-3.8,2.6-8.2,7.9-8.2c4.7,0,7.4,3.7,7.4,8.2H402.9z M421.7,362c-1.3,1.1-5.5,2.9-9.1,2.9
			c-5.1,0-9.7-4-9.7-9.8H424c0-9.5-3.2-16.7-13-16.7c-8.3,0-13.8,6.2-13.8,14.9c0,9.6,4.8,16,15.3,16c4.9,0,7.2-1.2,9.3-1.9V362z" />
      <path d="M432.8,353.8c-0.1-5.4,2.2-10.9,8.1-10.9c5.9,0,8.7,5.6,8.7,11.1c0,4.9-2.6,11-8.7,11C435.1,365,432.7,358.5,432.8,353.8z
			 M449.9,368.7h5.2v-43.4h-5.4v17.9h-0.1c-1.7-2.7-4.6-4.7-9.8-4.7c-8.6,0-12.7,7-12.7,14.9c0,8,3.8,16,12.7,16
			c5.3,0,8.6-2.7,10.1-4.9h0.1V368.7z" />
      <path d="M462.7,339.2h5.4v29.5h-5.4V339.2z M468.5,332.6h-6.1v-6.1h6.1V332.6z" />
      <path d="M491.4,343.6h-7.8v16.1c0,3.4,2.1,5.3,4.6,5.3c1.7,0,2.9-0.5,3.7-1v4.6c-1.2,0.3-2.9,0.8-4.6,0.8c-5.6,0-9.1-2.7-9.1-8.6
			v-17.2h-6.7v-4.4h6.7v-6.8l5.4-1.7v8.6h7.8V343.6z" />
      <path d="M541.7,352c0,11.3-5.7,17.4-15.7,17.4c-9.9,0-15.7-6.1-15.7-17.4v-23.7h5.8v22.9c0,7.8,2.4,13.1,9.9,13.1
			c7.5,0,9.9-5.3,9.9-13.1v-22.9h5.8V352z" />
      <path d="M549.2,339.2h5.3v4.7h0.1c1.6-3.4,5.6-5.4,9.7-5.4c7.6,0,11,4.7,11,12.7v17.5h-5.4v-15.3c0-6.9-1.5-10.2-6.2-10.5
			c-6.2,0-9,5-9,12.1v13.7h-5.4V339.2z" />
      <path d="M582.9,339.2h5.4v29.5h-5.4V339.2z M588.7,332.6h-6.1v-6.1h6.1V332.6z" />
      <path d="M599.8,353.9c0-5.6,3.4-11.1,9.3-11.1c5.8,0,9.2,5.4,9.2,11.1c0,5.3-2.8,11-9.2,11C602.6,365,599.8,359.2,599.8,353.9z
			 M594,353.9c0,8.4,6.1,15.4,15.1,15.4c8.9,0,15-7,15-15.4c0-9-6-15.5-15-15.5C600,338.5,594,345,594,353.9z" />
      <path d="M629,339.2h5.3v4.7h0.1c1.6-3.4,5.5-5.4,9.6-5.4c7.7,0,11.1,4.7,11.1,12.7v17.5h-5.4v-15.3c0-6.9-1.5-10.2-6.2-10.5
			c-6.2,0-9,5-9,12.1v13.7H629V339.2z" />
    </g>
    <g>
      <path class="st1" d="M577.3,137.4c7.6,0,13.9-5.8,13.9-12.9c0-7.3-6.2-13.1-13.9-13.1c-7.4,0-13.9,5.8-13.9,13.1
			C563.5,131.6,570,137.4,577.3,137.4z" />
      <path class="st1" d="M588.1,261.1v-90.6c-14.2,5-28,8.1-39.9,10.1v3.5c18.1,2,18.7,3.6,18.7,18.5v58.5c0,13.3-1.3,16.2-17.4,18.8
			c-13.9-2.7-15.2-5.6-15.2-18.8v-56.7c0-19.7-12.5-33.4-35.9-33.4c-8.8,0-14.4,2.8-22.9,7.4c-7.4,4-14.7,8.9-20.4,12.1v-20
			c-14.1,5-28,8.1-39.9,10.1v3.5c18.1,2,18.7,3.6,18.7,18.5v58.5c0,13-1.2,16-16.7,18.7c-15-2.6-16.3-5.7-16.3-18.7v-90.6
			c-2.9,1-5.8,2-8.7,2.8c-0.2,0-0.4,0.1-0.6,0.1c-8.7,1.3-15.9,1-15.9,1h-23.4c8.9-52.5,17.3-67.4,30-67.4c9.3,0,17.3,3.6,24.1,9.4
			c2.2,1.9,5.6,1.9,8.6-0.3c2.5-1.9,5.9-6.1,5.9-9.7c0.3-5.5-8-11.6-18.2-11.6c-17.3,0-35.2,9.1-49.4,23.5
			c-12.3,13-20.1,33.7-24.4,56.1H325h-16.1h-21c8.9-52.5,17.3-67.4,30-67.4c9.3,0,17.3,3.6,24.1,9.4c2.2,1.9,5.5,1.9,8.6-0.3
			c2.5-1.9,5.9-6.1,5.9-9.7c0.3-5.5-8-11.6-18.2-11.6c-17.3,0-35.2,9.1-49.4,23.5c-12.3,13-20.1,33.7-24.4,56.1H253l-8.4,5.5
			l0.9,2.8h17.4c-3.3,20.8-6.3,39.1-10.4,64c-10.4-24.3-21.7-53.2-34.2-81.9l-20.9-48.3l-3.7,1l-58,133.3
			c-10.7,24.6-14.2,26.3-32.5,30.4v3.5h60.5v-3.5l-5.9-1.3c-15.3-3-17.8-6.1-13.6-21.3c2.8-10.1,9.9-29.9,13.3-37.7H218
			c8.2,19.5,16.4,39.2,18.4,45.3c2.4,7.3,7.9,21.6,8.6,23.5c-6.4,33.3-11.2,46.3-16.1,50.1c-2.2,1.7-5.9,2.5-8.6,2.5
			c-3.7,0-9.6-2.5-13.6-4.1c-3.7-1.7-7.1,0-8.7,1.9c-2.5,2.5-5.3,6.3-5.3,9.4c0,5.5,8,8.3,13.3,8.3c5.9,0,19.1-4.4,32.4-19.1
			c7.4-8.2,16.9-23.9,26.2-54.1c1-3.3,2-6.8,3.1-10.6c2.9-10.5,5.7-22.4,8.5-36.2c2.5-11.9,4.6-24,9.9-54.7l25-0.5h16.1
			c-4,25.7-7.7,47.5-13.6,82.9c-8.6,51.7-14.5,69.6-20.4,74.3c-2.1,1.7-5.9,2.5-8.6,2.5c-3.7,0-9.6-2.5-13.6-4.1
			c-3.7-1.7-7.1,0-8.7,1.9c-2.5,2.5-5.2,6.3-5.2,9.4c0,5.5,8,8.3,13.3,8.3c5.9,0,19.2-4.4,32.4-19.1c10.5-11.6,25.3-38.4,37.7-100.9
			c2.5-11.9,4.6-24,9.9-54.7l16.4,1.4c12.3,1.9,12.9,5,12.9,18v58.5c0,13.9-1.4,16.4-19.8,19.2v3.5h53.6h7.2H474v-3.5
			c-17.5-2.8-19-5.3-19-19.2v-65.1c9.4-6.6,20.1-12.2,30.6-12.2c22.3,0,27.5,13.9,27.5,28.6v48.6c0,13.9-1.4,16.4-20.7,19.2v3.5
			h54.7h4.4h56.4v-3.5C589.5,277.6,588.1,275.1,588.1,261.1z M160.3,213.4l26.9-64.6h0.5l27.2,64.6H160.3z" />
      <path class="st1" d="M742.8,174.1v4l10.7,2c5.9,1.2,7.1,4,5.1,11.9c-3.7,13.2-18.7,48.9-26.3,66.1l-27.4-65.3
			c-3.1-7.1-3.4-11.6,2.3-12.9l9.1-1.8l0.6-4h-39.5h-17.4h-16.3v-32.6l-3.7-1.3l-17.5,19.2v14.7h-12.7l-8.8,5.8l0.9,2.5h20.6v74.9
			c0,19.2,9.1,29.6,29.1,29.6c1.4,0,4-0.5,7.7-2.3l23.2-11.9l-2-3.5c-5.9,3-13.6,5.3-18.1,5.3c-7.9,0-18.7-4-18.7-24.1v-68.1h31
			c4.2,2.7,6.2,7.1,10.2,16.2c8.8,19.5,22.3,50.4,32.8,78.5c1.4,4,2,6.6,1.4,8.4c-1.1,4-3.7,10.4-7.6,17.2c-5.4,9.6-13,17-20.7,22.3
			c-4.3,2.8-7.4,5.3-7.4,8.9c0.3,6.1,6.5,11.4,13.6,11.4c3.1,0,7.1-1.2,8.5-6.3c3.9-13.4,10.7-29.4,28.6-68.8
			c17.3-38.2,26.6-59.5,34.8-73.6c7.6-13.4,8.2-15.2,23.2-18.2v-4H742.8z" />
    </g>
  </g>
  <polygon class="st2" points="34.1,194 37,200.3 55.4,171.2 56.9,168.3 " />
  <g></g>
  <g></g>
  <g></g>
  <g></g>
  <g></g>
  <g></g>
</svg>